<svg xmlns="http://www.w3.org/2000/svg" version="1.1" xmlns:xlink="http://www.w3.org/1999/xlink" xmlns:svgjs="http://svgjs.dev/svgjs" viewBox="0 0 800 800"><defs><linearGradient x1="50%" y1="0%" x2="50%" y2="100%" id="ffflurry-grad" gradientTransform="rotate(270)"><stop stop-color="hsl(238, 82%, 13%)" stop-opacity="1" offset="0%" data-darkreader-inline-stopcolor="" style="--darkreader-inline-stopcolor: #050630;"></stop><stop stop-color="hsl(1.4, 100%, 67%)" stop-opacity="1" offset="45%" data-darkreader-inline-stopcolor="" style="--darkreader-inline-stopcolor: #980300;"></stop><stop stop-color="hsl(167, 52%, 78%)" stop-opacity="1" offset="100%" data-darkreader-inline-stopcolor="" style="--darkreader-inline-stopcolor: #1c5a4f;"></stop></linearGradient></defs><rect width="100%" height="100%" fill="hsl(238, 82%, 13%)" data-darkreader-inline-fill="" style="--darkreader-inline-fill: #050630;"></rect><g fill="url(#ffflurry-grad)"><rect width="77" height="3" x="361.5" y="22.5" rx="1.5" transform="rotate(45, 400, 24)" opacity="0.31"></rect><rect width="256" height="3" x="265" y="273.5" rx="1.5" transform="rotate(45, 393, 275)" opacity="0.58"></rect><rect width="149" height="3" x="200.5" y="337.5" rx="1.5" transform="rotate(45, 275, 339)" opacity="0.72"></rect><rect width="479" height="3" x="379.5" y="428.5" rx="1.5" transform="rotate(45, 619, 430)" opacity="0.12"></rect><rect width="542" height="3" x="394" y="511.5" rx="1.5" transform="rotate(45, 665, 513)" opacity="0.34"></rect><rect width="241" height="3" x="188.5" y="277.5" rx="1.5" transform="rotate(45, 309, 279)" opacity="0.37"></rect><rect width="387" height="3" x="-155.5" y="316.5" rx="1.5" transform="rotate(45, 38, 318)" opacity="0.13"></rect><rect width="120" height="3" x="585" y="632.5" rx="1.5" transform="rotate(45, 645, 634)" opacity="0.14"></rect><rect width="86" height="3" x="574" y="295.5" rx="1.5" transform="rotate(45, 617, 297)" opacity="0.62"></rect><rect width="329" height="3" x="299.5" y="363.5" rx="1.5" transform="rotate(45, 464, 365)" opacity="0.21"></rect><rect width="316" height="3" x="215" y="415.5" rx="1.5" transform="rotate(45, 373, 417)" opacity="0.17"></rect><rect width="111" height="3" x="529.5" y="46.5" rx="1.5" transform="rotate(45, 585, 48)" opacity="0.18"></rect><rect width="293" height="3" x="69.5" y="48.5" rx="1.5" transform="rotate(45, 216, 50)" opacity="0.98"></rect><rect width="40" height="3" x="688" y="32.5" rx="1.5" transform="rotate(45, 708, 34)" opacity="0.09"></rect><rect width="114" height="3" x="210" y="750.5" rx="1.5" transform="rotate(45, 267, 752)" opacity="0.46"></rect><rect width="315" height="3" x="0.5" y="191.5" rx="1.5" transform="rotate(45, 158, 193)" opacity="0.55"></rect><rect width="200" height="3" x="426" y="476.5" rx="1.5" transform="rotate(45, 526, 478)" opacity="0.17"></rect><rect width="482" height="3" x="435" y="751.5" rx="1.5" transform="rotate(45, 676, 753)" opacity="0.92"></rect><rect width="267" height="3" x="319.5" y="247.5" rx="1.5" transform="rotate(45, 453, 249)" opacity="0.13"></rect><rect width="221" height="3" x="507.5" y="229.5" rx="1.5" transform="rotate(45, 618, 231)" opacity="0.45"></rect><rect width="215" height="3" x="51.5" y="401.5" rx="1.5" transform="rotate(45, 159, 403)" opacity="0.76"></rect><rect width="117" height="3" x="440.5" y="21.5" rx="1.5" transform="rotate(45, 499, 23)" opacity="0.18"></rect><rect width="368" height="3" x="573" y="232.5" rx="1.5" transform="rotate(45, 757, 234)" opacity="0.66"></rect><rect width="511" height="3" x="103.5" y="663.5" rx="1.5" transform="rotate(45, 359, 665)" opacity="0.47"></rect><rect width="349" height="3" x="496.5" y="178.5" rx="1.5" transform="rotate(45, 671, 180)" opacity="0.42"></rect><rect width="673" height="3" x="410.5" y="461.5" rx="1.5" transform="rotate(45, 747, 463)" opacity="0.39"></rect><rect width="686" height="3" x="-290" y="140.5" rx="1.5" transform="rotate(45, 53, 142)" opacity="0.50"></rect><rect width="353" height="3" x="277.5" y="88.5" rx="1.5" transform="rotate(45, 454, 90)" opacity="0.10"></rect><rect width="340" height="3" x="364" y="628.5" rx="1.5" transform="rotate(45, 534, 630)" opacity="0.58"></rect><rect width="409" height="3" x="-7.5" y="242.5" rx="1.5" transform="rotate(45, 197, 244)" opacity="0.42"></rect><rect width="418" height="3" x="547" y="716.5" rx="1.5" transform="rotate(45, 756, 718)" opacity="0.39"></rect><rect width="145" height="3" x="346.5" y="527.5" rx="1.5" transform="rotate(45, 419, 529)" opacity="0.61"></rect><rect width="642" height="3" x="-7" y="58.5" rx="1.5" transform="rotate(45, 314, 60)" opacity="0.61"></rect><rect width="245" height="3" x="387.5" y="78.5" rx="1.5" transform="rotate(45, 510, 80)" opacity="0.42"></rect><rect width="587" height="3" x="-164.5" y="480.5" rx="1.5" transform="rotate(45, 129, 482)" opacity="0.23"></rect><rect width="457" height="3" x="522.5" y="136.5" rx="1.5" transform="rotate(45, 751, 138)" opacity="0.09"></rect><rect width="502" height="3" x="438" y="275.5" rx="1.5" transform="rotate(45, 689, 277)" opacity="0.27"></rect><rect width="252" height="3" x="261" y="90.5" rx="1.5" transform="rotate(45, 387, 92)" opacity="0.09"></rect><rect width="642" height="3" x="-242" y="44.5" rx="1.5" transform="rotate(45, 79, 46)" opacity="0.96"></rect><rect width="185" height="3" x="381.5" y="194.5" rx="1.5" transform="rotate(45, 474, 196)" opacity="0.27"></rect><rect width="375" height="3" x="5.5" y="557.5" rx="1.5" transform="rotate(45, 193, 559)" opacity="0.73"></rect><rect width="234" height="3" x="160" y="161.5" rx="1.5" transform="rotate(45, 277, 163)" opacity="0.97"></rect><rect width="437" height="3" x="130.5" y="195.5" rx="1.5" transform="rotate(45, 349, 197)" opacity="0.95"></rect><rect width="313" height="3" x="-80.5" y="594.5" rx="1.5" transform="rotate(45, 76, 596)" opacity="0.93"></rect><rect width="322" height="3" x="15" y="126.5" rx="1.5" transform="rotate(45, 176, 128)" opacity="0.15"></rect><rect width="178" height="3" x="-56" y="519.5" rx="1.5" transform="rotate(45, 33, 521)" opacity="0.20"></rect><rect width="314" height="3" x="559" y="612.5" rx="1.5" transform="rotate(45, 716, 614)" opacity="0.25"></rect><rect width="340" height="3" x="86" y="640.5" rx="1.5" transform="rotate(45, 256, 642)" opacity="0.22"></rect><rect width="423" height="3" x="-167.5" y="452.5" rx="1.5" transform="rotate(45, 44, 454)" opacity="0.72"></rect><rect width="134" height="3" x="437" y="751.5" rx="1.5" transform="rotate(45, 504, 753)" opacity="0.18"></rect><rect width="147" height="3" x="700.5" y="49.5" rx="1.5" transform="rotate(45, 774, 51)" opacity="0.88"></rect><rect width="761" height="3" x="-134.5" y="429.5" rx="1.5" transform="rotate(45, 246, 431)" opacity="0.71"></rect><rect width="430" height="3" x="178" y="764.5" rx="1.5" transform="rotate(45, 393, 766)" opacity="0.61"></rect><rect width="163" height="3" x="503.5" y="687.5" rx="1.5" transform="rotate(45, 585, 689)" opacity="0.11"></rect><rect width="402" height="3" x="-117" y="387.5" rx="1.5" transform="rotate(45, 84, 389)" opacity="0.23"></rect><rect width="282" height="3" x="308" y="697.5" rx="1.5" transform="rotate(45, 449, 699)" opacity="0.16"></rect><rect width="859" height="3" x="-284.5" y="721.5" rx="1.5" transform="rotate(45, 145, 723)" opacity="0.65"></rect><rect width="500" height="3" x="170" y="152.5" rx="1.5" transform="rotate(45, 420, 154)" opacity="0.39"></rect><rect width="593" height="3" x="15.5" y="528.5" rx="1.5" transform="rotate(45, 312, 530)" opacity="0.64"></rect><rect width="215" height="3" x="429.5" y="208.5" rx="1.5" transform="rotate(45, 537, 210)" opacity="0.44"></rect><rect width="269" height="3" x="326.5" y="602.5" rx="1.5" transform="rotate(45, 461, 604)" opacity="0.58"></rect><rect width="44" height="3" x="515" y="310.5" rx="1.5" transform="rotate(45, 537, 312)" opacity="0.23"></rect><rect width="106" height="3" x="530" y="559.5" rx="1.5" transform="rotate(45, 583, 561)" opacity="0.44"></rect><rect width="59" height="3" x="95.5" y="315.5" rx="1.5" transform="rotate(45, 125, 317)" opacity="0.78"></rect><rect width="560" height="3" x="482" y="349.5" rx="1.5" transform="rotate(45, 762, 351)" opacity="0.14"></rect><rect width="441" height="3" x="-158.5" y="236.5" rx="1.5" transform="rotate(45, 62, 238)" opacity="0.82"></rect><rect width="322" height="3" x="418" y="364.5" rx="1.5" transform="rotate(45, 579, 366)" opacity="0.64"></rect><rect width="511" height="3" x="-212.5" y="720.5" rx="1.5" transform="rotate(45, 43, 722)" opacity="0.35"></rect><rect width="197" height="3" x="491.5" y="147.5" rx="1.5" transform="rotate(45, 590, 149)" opacity="0.52"></rect><rect width="42" height="3" x="563" y="761.5" rx="1.5" transform="rotate(45, 584, 763)" opacity="0.82"></rect><rect width="177" height="3" x="449.5" y="257.5" rx="1.5" transform="rotate(45, 538, 259)" opacity="0.09"></rect><rect width="490" height="3" x="413" y="82.5" rx="1.5" transform="rotate(45, 658, 84)" opacity="0.76"></rect><rect width="308" height="3" x="-130" y="394.5" rx="1.5" transform="rotate(45, 24, 396)" opacity="0.95"></rect><rect width="475" height="3" x="530.5" y="567.5" rx="1.5" transform="rotate(45, 768, 569)" opacity="0.32"></rect><rect width="271" height="3" x="61.5" y="316.5" rx="1.5" transform="rotate(45, 197, 318)" opacity="0.55"></rect><rect width="310" height="3" x="360" y="146.5" rx="1.5" transform="rotate(45, 515, 148)" opacity="0.58"></rect><rect width="433" height="3" x="466.5" y="366.5" rx="1.5" transform="rotate(45, 683, 368)" opacity="0.57"></rect></g></svg>